<svg width="32" height="32" viewBox="0 0 32 32" fill="none" xmlns="http://www.w3.org/2000/svg">
  <rect width="32" height="32" rx="6" fill="#FF6B6B"/>
  <!-- S-shaped workflow path -->
  <path d="M22 8 C22 8, 18 8, 16 10 C14 12, 14 14, 14 16 C14 18, 14 20, 16 22 C18 24, 22 24, 22 24" stroke="white" stroke-width="2.5" stroke-linecap="round" fill="none"/>
  <path d="M10 24 C10 24, 14 24, 16 22 C18 20, 18 18, 18 16 C18 14, 18 12, 16 10 C14 8, 10 8, 10 8" stroke="white" stroke-width="2.5" stroke-linecap="round" fill="none"/>
  <!-- Connection nodes -->
  <circle cx="10" cy="10" r="2.5" fill="#FF6B6B" stroke="white" stroke-width="2"/>
  <circle cx="22" cy="10" r="2.5" fill="#FF6B6B" stroke="white" stroke-width="2"/>
  <circle cx="10" cy="22" r="2.5" fill="#FF6B6B" stroke="white" stroke-width="2"/>
  <circle cx="22" cy="22" r="2.5" fill="#FF6B6B" stroke="white" stroke-width="2"/>
</svg>
